<svg xmlns="http://www.w3.org/2000/svg" width="22" height="22" viewBox="0 0 22 22" shape-rendering="crispEdges"><rect x="9" y="2" width="1" height="1" fill="#10262b"/><rect x="8" y="3" width="2" height="1" fill="#10262b"/><rect x="7" y="4" width="1" height="1" fill="#10262b"/><rect x="8" y="4" width="1" height="1" fill="#e8874f"/><rect x="9" y="4" width="1" height="1" fill="#10262b"/><rect x="6" y="5" width="1" height="1" fill="#10262b"/><rect x="7" y="5" width="2" height="1" fill="#e8874f"/><rect x="9" y="5" width="1" height="1" fill="#10262b"/><rect x="5" y="6" width="1" height="1" fill="#10262b"/><rect x="6" y="6" width="3" height="1" fill="#e8874f"/><rect x="9" y="6" width="1" height="1" fill="#10262b"/><rect x="4" y="7" width="1" height="1" fill="#10262b"/><rect x="5" y="7" width="5" height="1" fill="#e8874f"/><rect x="10" y="7" width="11" height="1" fill="#10262b"/><rect x="3" y="8" width="1" height="1" fill="#10262b"/><rect x="4" y="8" width="16" height="1" fill="#e8874f"/><rect x="20" y="8" width="1" height="1" fill="#10262b"/><rect x="2" y="9" width="1" height="1" fill="#10262b"/><rect x="3" y="9" width="17" height="1" fill="#e8874f"/><rect x="20" y="9" width="1" height="1" fill="#10262b"/><rect x="1" y="10" width="1" height="1" fill="#10262b"/><rect x="2" y="10" width="18" height="1" fill="#e8874f"/><rect x="20" y="10" width="1" height="1" fill="#10262b"/><rect x="1" y="11" width="1" height="1" fill="#10262b"/><rect x="2" y="11" width="18" height="1" fill="#e8874f"/><rect x="20" y="11" width="1" height="1" fill="#10262b"/><rect x="2" y="12" width="1" height="1" fill="#10262b"/><rect x="3" y="12" width="17" height="1" fill="#e8874f"/><rect x="20" y="12" width="1" height="1" fill="#10262b"/><rect x="3" y="13" width="1" height="1" fill="#10262b"/><rect x="4" y="13" width="16" height="1" fill="#e8874f"/><rect x="20" y="13" width="1" height="1" fill="#10262b"/><rect x="4" y="14" width="1" height="1" fill="#10262b"/><rect x="5" y="14" width="5" height="1" fill="#e8874f"/><rect x="10" y="14" width="11" height="1" fill="#10262b"/><rect x="5" y="15" width="1" height="1" fill="#10262b"/><rect x="6" y="15" width="3" height="1" fill="#e8874f"/><rect x="9" y="15" width="1" height="1" fill="#10262b"/><rect x="6" y="16" width="1" height="1" fill="#10262b"/><rect x="7" y="16" width="2" height="1" fill="#e8874f"/><rect x="9" y="16" width="1" height="1" fill="#10262b"/><rect x="7" y="17" width="1" height="1" fill="#10262b"/><rect x="8" y="17" width="1" height="1" fill="#e8874f"/><rect x="9" y="17" width="1" height="1" fill="#10262b"/><rect x="8" y="18" width="2" height="1" fill="#10262b"/><rect x="9" y="19" width="1" height="1" fill="#10262b"/></svg>
