<svg xmlns="http://www.w3.org/2000/svg" width="156" height="36" viewBox="0 0 156 36">
  <g id="active-center">
    <rect x="6" y="6" width="24" height="24" fill="#e8874f" />
    <rect x="6" y="6" width="24" height="1" fill="#10262b" />
    <rect x="6" y="29" width="24" height="1" fill="#10262b" />
    <rect x="6" y="6" width="1" height="24" fill="#10262b" />
    <rect x="29" y="6" width="1" height="24" fill="#10262b" />
    <rect x="7" y="7" width="22" height="1" fill="#c9dedb" />
    <rect x="7" y="7" width="1" height="22" fill="#c9dedb" />
    <rect x="7" y="28" width="22" height="1" fill="#41646a" />
    <rect x="28" y="7" width="1" height="22" fill="#41646a" />
<rect x="12.0" y="12.0" width="12" height="12" fill="#10262b" /><path d="M13.0 23.0V13.0H23.0" fill="none" stroke="#f0b184" />
  </g>
  <g id="inactive-center">
    <rect x="36" y="6" width="24" height="24" fill="#649099" />
    <rect x="36" y="6" width="24" height="1" fill="#10262b" />
    <rect x="36" y="29" width="24" height="1" fill="#10262b" />
    <rect x="36" y="6" width="1" height="24" fill="#10262b" />
    <rect x="59" y="6" width="1" height="24" fill="#10262b" />
    <rect x="37" y="7" width="22" height="1" fill="#c9dedb" />
    <rect x="37" y="7" width="1" height="22" fill="#c9dedb" />
    <rect x="37" y="28" width="22" height="1" fill="#41646a" />
    <rect x="58" y="7" width="1" height="22" fill="#41646a" />
<rect x="42.0" y="12.0" width="12" height="12" fill="#10262b" /><path d="M43.0 23.0V13.0H53.0" fill="none" stroke="#f0b184" />
  </g>
  <g id="hover-center">
    <rect x="66" y="6" width="24" height="24" fill="#e8874f" />
    <rect x="66" y="6" width="24" height="1" fill="#10262b" />
    <rect x="66" y="29" width="24" height="1" fill="#10262b" />
    <rect x="66" y="6" width="1" height="24" fill="#10262b" />
    <rect x="89" y="6" width="1" height="24" fill="#10262b" />
    <rect x="67" y="7" width="22" height="1" fill="#c9dedb" />
    <rect x="67" y="7" width="1" height="22" fill="#c9dedb" />
    <rect x="67" y="28" width="22" height="1" fill="#41646a" />
    <rect x="88" y="7" width="1" height="22" fill="#41646a" />
<rect x="72.0" y="12.0" width="12" height="12" fill="#10262b" /><path d="M73.0 23.0V13.0H83.0" fill="none" stroke="#f0b184" />
  </g>
  <g id="pressed-center">
    <rect x="96" y="6" width="24" height="24" fill="#e8874f" />
    <rect x="96" y="6" width="24" height="1" fill="#10262b" />
    <rect x="96" y="29" width="24" height="1" fill="#10262b" />
    <rect x="96" y="6" width="1" height="24" fill="#10262b" />
    <rect x="119" y="6" width="1" height="24" fill="#10262b" />
    <rect x="97" y="7" width="22" height="1" fill="#41646a" />
    <rect x="97" y="7" width="1" height="22" fill="#41646a" />
    <rect x="97" y="28" width="22" height="1" fill="#c9dedb" />
    <rect x="118" y="7" width="1" height="22" fill="#c9dedb" />
<rect x="103.0" y="13.0" width="12" height="12" fill="#10262b" /><path d="M104.0 24.0V14.0H114.0" fill="none" stroke="#f0b184" />
  </g>
  <g id="deactivated-center">
    <rect x="126" y="6" width="24" height="24" fill="#e8874f" />
    <rect x="126" y="6" width="24" height="1" fill="#10262b" />
    <rect x="126" y="29" width="24" height="1" fill="#10262b" />
    <rect x="126" y="6" width="1" height="24" fill="#10262b" />
    <rect x="149" y="6" width="1" height="24" fill="#10262b" />
    <rect x="127" y="7" width="22" height="1" fill="#c9dedb" />
    <rect x="127" y="7" width="1" height="22" fill="#c9dedb" />
    <rect x="127" y="28" width="22" height="1" fill="#41646a" />
    <rect x="148" y="7" width="1" height="22" fill="#41646a" />
<rect x="132.0" y="12.0" width="12" height="12" fill="#10262b" /><path d="M133.0 23.0V13.0H143.0" fill="none" stroke="#f0b184" />
  </g>
</svg>