<svg xmlns="http://www.w3.org/2000/svg" width="156" height="36" viewBox="0 0 156 36">
  <g id="active-center">
    <rect x="6" y="6" width="24" height="24" fill="#e8874f" />
    <rect x="6" y="6" width="24" height="1" fill="#10262b" />
    <rect x="6" y="29" width="24" height="1" fill="#10262b" />
    <rect x="6" y="6" width="1" height="24" fill="#10262b" />
    <rect x="29" y="6" width="1" height="24" fill="#10262b" />
    <rect x="7" y="7" width="22" height="1" fill="#c9dedb" />
    <rect x="7" y="7" width="1" height="22" fill="#c9dedb" />
    <rect x="7" y="28" width="22" height="1" fill="#41646a" />
    <rect x="28" y="7" width="1" height="22" fill="#41646a" />
    <rect x="10.8" y="12.96" width="12.24" height="12.24" fill="none" stroke="#10262b" stroke-width="1.728" />
    <path d="M12.96,12.96 L12.96,10.8 L25.2,10.8 L25.2,23.04" fill="none" stroke="#10262b" stroke-width="1.728" />
  </g>
  <g id="inactive-center">
    <rect x="36" y="6" width="24" height="24" fill="#649099" />
    <rect x="36" y="6" width="24" height="1" fill="#10262b" />
    <rect x="36" y="29" width="24" height="1" fill="#10262b" />
    <rect x="36" y="6" width="1" height="24" fill="#10262b" />
    <rect x="59" y="6" width="1" height="24" fill="#10262b" />
    <rect x="37" y="7" width="22" height="1" fill="#c9dedb" />
    <rect x="37" y="7" width="1" height="22" fill="#c9dedb" />
    <rect x="37" y="28" width="22" height="1" fill="#41646a" />
    <rect x="58" y="7" width="1" height="22" fill="#41646a" />
    <rect x="40.8" y="12.96" width="12.24" height="12.24" fill="none" stroke="#10262b" stroke-width="1.728" />
    <path d="M42.96,12.96 L42.96,10.8 L55.2,10.8 L55.2,23.04" fill="none" stroke="#10262b" stroke-width="1.728" />
  </g>
  <g id="hover-center">
    <rect x="66" y="6" width="24" height="24" fill="#e8874f" />
    <rect x="66" y="6" width="24" height="1" fill="#10262b" />
    <rect x="66" y="29" width="24" height="1" fill="#10262b" />
    <rect x="66" y="6" width="1" height="24" fill="#10262b" />
    <rect x="89" y="6" width="1" height="24" fill="#10262b" />
    <rect x="67" y="7" width="22" height="1" fill="#c9dedb" />
    <rect x="67" y="7" width="1" height="22" fill="#c9dedb" />
    <rect x="67" y="28" width="22" height="1" fill="#41646a" />
    <rect x="88" y="7" width="1" height="22" fill="#41646a" />
    <rect x="70.8" y="12.96" width="12.24" height="12.24" fill="none" stroke="#10262b" stroke-width="1.728" />
    <path d="M72.96,12.96 L72.96,10.8 L85.2,10.8 L85.2,23.04" fill="none" stroke="#10262b" stroke-width="1.728" />
  </g>
  <g id="pressed-center">
    <rect x="96" y="6" width="24" height="24" fill="#e8874f" />
    <rect x="96" y="6" width="24" height="1" fill="#10262b" />
    <rect x="96" y="29" width="24" height="1" fill="#10262b" />
    <rect x="96" y="6" width="1" height="24" fill="#10262b" />
    <rect x="119" y="6" width="1" height="24" fill="#10262b" />
    <rect x="97" y="7" width="22" height="1" fill="#41646a" />
    <rect x="97" y="7" width="1" height="22" fill="#41646a" />
    <rect x="97" y="28" width="22" height="1" fill="#c9dedb" />
    <rect x="118" y="7" width="1" height="22" fill="#c9dedb" />
    <rect x="101.8" y="13.96" width="12.24" height="12.24" fill="none" stroke="#10262b" stroke-width="1.728" />
    <path d="M103.96,13.96 L103.96,11.8 L116.2,11.8 L116.2,24.04" fill="none" stroke="#10262b" stroke-width="1.728" />
  </g>
  <g id="deactivated-center">
    <rect x="126" y="6" width="24" height="24" fill="#e8874f" />
    <rect x="126" y="6" width="24" height="1" fill="#10262b" />
    <rect x="126" y="29" width="24" height="1" fill="#10262b" />
    <rect x="126" y="6" width="1" height="24" fill="#10262b" />
    <rect x="149" y="6" width="1" height="24" fill="#10262b" />
    <rect x="127" y="7" width="22" height="1" fill="#c9dedb" />
    <rect x="127" y="7" width="1" height="22" fill="#c9dedb" />
    <rect x="127" y="28" width="22" height="1" fill="#41646a" />
    <rect x="148" y="7" width="1" height="22" fill="#41646a" />
    <rect x="130.8" y="12.96" width="12.24" height="12.24" fill="none" stroke="#10262b" stroke-width="1.728" />
    <path d="M132.96,12.96 L132.96,10.8 L145.2,10.8 L145.2,23.04" fill="none" stroke="#10262b" stroke-width="1.728" />
  </g>
</svg>