<svg xmlns="http://www.w3.org/2000/svg" width="22" height="22" viewBox="0 0 22 22" shape-rendering="crispEdges"><rect x="9" y="0" width="4" height="1" fill="#10262b"/><rect x="9" y="1" width="1" height="1" fill="#10262b"/><rect x="10" y="1" width="2" height="1" fill="#86a4aa"/><rect x="12" y="1" width="1" height="1" fill="#10262b"/><rect x="4" y="2" width="2" height="1" fill="#10262b"/><rect x="9" y="2" width="1" height="1" fill="#10262b"/><rect x="10" y="2" width="2" height="1" fill="#86a4aa"/><rect x="12" y="2" width="1" height="1" fill="#10262b"/><rect x="16" y="2" width="2" height="1" fill="#10262b"/><rect x="3" y="3" width="1" height="1" fill="#10262b"/><rect x="4" y="3" width="2" height="1" fill="#86a4aa"/><rect x="6" y="3" width="1" height="1" fill="#10262b"/><rect x="8" y="3" width="1" height="1" fill="#10262b"/><rect x="9" y="3" width="4" height="1" fill="#86a4aa"/><rect x="13" y="3" width="1" height="1" fill="#10262b"/><rect x="15" y="3" width="1" height="1" fill="#10262b"/><rect x="16" y="3" width="2" height="1" fill="#86a4aa"/><rect x="18" y="3" width="1" height="1" fill="#10262b"/><rect x="2" y="4" width="1" height="1" fill="#10262b"/><rect x="3" y="4" width="4" height="1" fill="#86a4aa"/><rect x="7" y="4" width="1" height="1" fill="#10262b"/><rect x="8" y="4" width="6" height="1" fill="#86a4aa"/><rect x="14" y="4" width="1" height="1" fill="#10262b"/><rect x="15" y="4" width="4" height="1" fill="#86a4aa"/><rect x="19" y="4" width="1" height="1" fill="#10262b"/><rect x="2" y="5" width="1" height="1" fill="#10262b"/><rect x="3" y="5" width="16" height="1" fill="#86a4aa"/><rect x="19" y="5" width="1" height="1" fill="#10262b"/><rect x="3" y="6" width="1" height="1" fill="#10262b"/><rect x="4" y="6" width="14" height="1" fill="#86a4aa"/><rect x="18" y="6" width="1" height="1" fill="#10262b"/><rect x="4" y="7" width="1" height="1" fill="#10262b"/><rect x="5" y="7" width="5" height="1" fill="#86a4aa"/><rect x="10" y="7" width="2" height="1" fill="#10262b"/><rect x="12" y="7" width="5" height="1" fill="#86a4aa"/><rect x="17" y="7" width="1" height="1" fill="#10262b"/><rect x="3" y="8" width="1" height="1" fill="#10262b"/><rect x="4" y="8" width="4" height="1" fill="#86a4aa"/><rect x="8" y="8" width="2" height="1" fill="#10262b"/><rect x="10" y="8" width="2" height="1" fill="#2e7180"/><rect x="12" y="8" width="2" height="1" fill="#10262b"/><rect x="14" y="8" width="4" height="1" fill="#86a4aa"/><rect x="18" y="8" width="1" height="1" fill="#10262b"/><rect x="0" y="9" width="3" height="1" fill="#10262b"/><rect x="3" y="9" width="5" height="1" fill="#86a4aa"/><rect x="8" y="9" width="1" height="1" fill="#10262b"/><rect x="9" y="9" width="4" height="1" fill="#2e7180"/><rect x="13" y="9" width="1" height="1" fill="#10262b"/><rect x="14" y="9" width="5" height="1" fill="#86a4aa"/><rect x="19" y="9" width="3" height="1" fill="#10262b"/><rect x="0" y="10" width="1" height="1" fill="#10262b"/><rect x="1" y="10" width="6" height="1" fill="#86a4aa"/><rect x="7" y="10" width="1" height="1" fill="#10262b"/><rect x="8" y="10" width="6" height="1" fill="#2e7180"/><rect x="14" y="10" width="1" height="1" fill="#10262b"/><rect x="15" y="10" width="6" height="1" fill="#86a4aa"/><rect x="21" y="10" width="1" height="1" fill="#10262b"/><rect x="0" y="11" width="1" height="1" fill="#10262b"/><rect x="1" y="11" width="6" height="1" fill="#86a4aa"/><rect x="7" y="11" width="1" height="1" fill="#10262b"/><rect x="8" y="11" width="6" height="1" fill="#2e7180"/><rect x="14" y="11" width="1" height="1" fill="#10262b"/><rect x="15" y="11" width="6" height="1" fill="#86a4aa"/><rect x="21" y="11" width="1" height="1" fill="#10262b"/><rect x="0" y="12" width="3" height="1" fill="#10262b"/><rect x="3" y="12" width="5" height="1" fill="#86a4aa"/><rect x="8" y="12" width="1" height="1" fill="#10262b"/><rect x="9" y="12" width="4" height="1" fill="#2e7180"/><rect x="13" y="12" width="1" height="1" fill="#10262b"/><rect x="14" y="12" width="5" height="1" fill="#86a4aa"/><rect x="19" y="12" width="3" height="1" fill="#10262b"/><rect x="3" y="13" width="1" height="1" fill="#10262b"/><rect x="4" y="13" width="4" height="1" fill="#86a4aa"/><rect x="8" y="13" width="2" height="1" fill="#10262b"/><rect x="10" y="13" width="2" height="1" fill="#2e7180"/><rect x="12" y="13" width="2" height="1" fill="#10262b"/><rect x="14" y="13" width="4" height="1" fill="#86a4aa"/><rect x="18" y="13" width="1" height="1" fill="#10262b"/><rect x="4" y="14" width="1" height="1" fill="#10262b"/><rect x="5" y="14" width="5" height="1" fill="#86a4aa"/><rect x="10" y="14" width="2" height="1" fill="#10262b"/><rect x="12" y="14" width="5" height="1" fill="#86a4aa"/><rect x="17" y="14" width="1" height="1" fill="#10262b"/><rect x="3" y="15" width="1" height="1" fill="#10262b"/><rect x="4" y="15" width="14" height="1" fill="#86a4aa"/><rect x="18" y="15" width="1" height="1" fill="#10262b"/><rect x="2" y="16" width="1" height="1" fill="#10262b"/><rect x="3" y="16" width="16" height="1" fill="#86a4aa"/><rect x="19" y="16" width="1" height="1" fill="#10262b"/><rect x="2" y="17" width="1" height="1" fill="#10262b"/><rect x="3" y="17" width="4" height="1" fill="#86a4aa"/><rect x="7" y="17" width="1" height="1" fill="#10262b"/><rect x="8" y="17" width="6" height="1" fill="#86a4aa"/><rect x="14" y="17" width="1" height="1" fill="#10262b"/><rect x="15" y="17" width="4" height="1" fill="#86a4aa"/><rect x="19" y="17" width="1" height="1" fill="#10262b"/><rect x="3" y="18" width="1" height="1" fill="#10262b"/><rect x="4" y="18" width="2" height="1" fill="#86a4aa"/><rect x="6" y="18" width="1" height="1" fill="#10262b"/><rect x="8" y="18" width="1" height="1" fill="#10262b"/><rect x="9" y="18" width="4" height="1" fill="#86a4aa"/><rect x="13" y="18" width="1" height="1" fill="#10262b"/><rect x="15" y="18" width="1" height="1" fill="#10262b"/><rect x="16" y="18" width="2" height="1" fill="#86a4aa"/><rect x="18" y="18" width="1" height="1" fill="#10262b"/><rect x="4" y="19" width="2" height="1" fill="#10262b"/><rect x="9" y="19" width="1" height="1" fill="#10262b"/><rect x="10" y="19" width="2" height="1" fill="#86a4aa"/><rect x="12" y="19" width="1" height="1" fill="#10262b"/><rect x="16" y="19" width="2" height="1" fill="#10262b"/><rect x="9" y="20" width="1" height="1" fill="#10262b"/><rect x="10" y="20" width="2" height="1" fill="#86a4aa"/><rect x="12" y="20" width="1" height="1" fill="#10262b"/><rect x="9" y="21" width="4" height="1" fill="#10262b"/></svg>
