<?xml version="1.0" encoding="UTF-8"?>
<svg xmlns="http://www.w3.org/2000/svg" width="188" height="100" viewBox="0 0 188 100">
  <!-- button.svg — Schaltflaechen in Plasmoids -->
  <!-- Erzeugt von tools/gen-plasma-svg.py. Die Element-IDs sind
       die Schnittstelle zu Plasma: bitte nicht umbenennen. -->
  <defs>
    <style id="current-color-scheme" type="text/css">
      .ColorScheme-Text { color:#0a1012; stop-color:#0a1012; }
      .ColorScheme-Background { color:#32302a; stop-color:#32302a; }
      .ColorScheme-Highlight { color:#96703a; stop-color:#96703a; }
      .ColorScheme-ViewText { color:#0a1012; stop-color:#0a1012; }
      .ColorScheme-ViewBackground { color:#26241e; stop-color:#26241e; }
      .ColorScheme-ViewHover { color:#c87922; stop-color:#c87922; }
      .ColorScheme-ViewFocus { color:#96703a; stop-color:#96703a; }
      .ColorScheme-ButtonText { color:#0a1012; stop-color:#0a1012; }
      .ColorScheme-ButtonBackground { color:#32302a; stop-color:#32302a; }
      .ColorScheme-ButtonHover { color:#c87922; stop-color:#c87922; }
      .ColorScheme-ButtonFocus { color:#96703a; stop-color:#96703a; }
      .ColorScheme-HighlightedText { color:#26241e; stop-color:#26241e; }
      .ColorScheme-ComplementaryBackground { color:#2b2822; stop-color:#2b2822; }
      .ColorScheme-NegativeText { color:#a83232; stop-color:#a83232; }
      .ColorScheme-NeutralText { color:#c87922; stop-color:#c87922; }
      .ColorScheme-PositiveText { color:#39734a; stop-color:#39734a; }
    </style>
  </defs>
  <!-- normal -->
    <g id="normal-topleft">
      <rect x="12" y="12" width="6" height="6" class="ColorScheme-Background" style="fill:currentColor;fill-opacity:1;stroke:none"/>
      <rect x="12" y="12" width="6" height="1" fill="#0a1012"/>
      <rect x="13" y="13" width="5" height="1" fill="#544e42"/>
      <rect x="12" y="12" width="1" height="6" fill="#0a1012"/>
      <rect x="13" y="13" width="1" height="5" fill="#544e42"/>
    </g>
    <g id="normal-top">
      <rect x="18" y="12" width="20" height="6" class="ColorScheme-Background" style="fill:currentColor;fill-opacity:1;stroke:none"/>
      <rect x="18" y="12" width="20" height="1" fill="#0a1012"/>
      <rect x="18" y="13" width="20" height="1" fill="#544e42"/>
    </g>
    <g id="normal-topright">
      <rect x="38" y="12" width="6" height="6" class="ColorScheme-Background" style="fill:currentColor;fill-opacity:1;stroke:none"/>
      <rect x="38" y="12" width="6" height="1" fill="#0a1012"/>
      <rect x="38" y="13" width="5" height="1" fill="#544e42"/>
      <rect x="43" y="12" width="1" height="6" fill="#0a1012"/>
      <rect x="42" y="13" width="1" height="5" fill="#16130e"/>
    </g>
    <g id="normal-left">
      <rect x="12" y="18" width="6" height="20" class="ColorScheme-Background" style="fill:currentColor;fill-opacity:1;stroke:none"/>
      <rect x="12" y="18" width="1" height="20" fill="#0a1012"/>
      <rect x="13" y="18" width="1" height="20" fill="#544e42"/>
    </g>
    <g id="normal-center">
      <rect x="18" y="18" width="20" height="20" class="ColorScheme-Background" style="fill:currentColor;fill-opacity:1;stroke:none"/>
    </g>
    <g id="normal-right">
      <rect x="38" y="18" width="6" height="20" class="ColorScheme-Background" style="fill:currentColor;fill-opacity:1;stroke:none"/>
      <rect x="43" y="18" width="1" height="20" fill="#0a1012"/>
      <rect x="42" y="18" width="1" height="20" fill="#16130e"/>
    </g>
    <g id="normal-bottomleft">
      <rect x="12" y="38" width="6" height="6" class="ColorScheme-Background" style="fill:currentColor;fill-opacity:1;stroke:none"/>
      <rect x="12" y="43" width="6" height="1" fill="#0a1012"/>
      <rect x="13" y="42" width="5" height="1" fill="#16130e"/>
      <rect x="12" y="38" width="1" height="6" fill="#0a1012"/>
      <rect x="13" y="38" width="1" height="5" fill="#544e42"/>
    </g>
    <g id="normal-bottom">
      <rect x="18" y="38" width="20" height="6" class="ColorScheme-Background" style="fill:currentColor;fill-opacity:1;stroke:none"/>
      <rect x="18" y="43" width="20" height="1" fill="#0a1012"/>
      <rect x="18" y="42" width="20" height="1" fill="#16130e"/>
    </g>
    <g id="normal-bottomright">
      <rect x="38" y="38" width="6" height="6" class="ColorScheme-Background" style="fill:currentColor;fill-opacity:1;stroke:none"/>
      <rect x="38" y="43" width="6" height="1" fill="#0a1012"/>
      <rect x="38" y="42" width="5" height="1" fill="#16130e"/>
      <rect x="43" y="38" width="1" height="6" fill="#0a1012"/>
      <rect x="42" y="38" width="1" height="5" fill="#16130e"/>
    </g>
    <rect id="normal-hint-top-margin" x="28" y="12" width="2" height="4" fill="#ff00ff" opacity="0"/>
    <rect id="normal-hint-bottom-margin" x="28" y="40" width="2" height="4" fill="#ff00ff" opacity="0"/>
    <rect id="normal-hint-left-margin" x="12" y="28" width="4" height="2" fill="#ff00ff" opacity="0"/>
    <rect id="normal-hint-right-margin" x="40" y="28" width="4" height="2" fill="#ff00ff" opacity="0"/>
    <rect id="normal-hint-compose-over-border" x="15" y="13" width="1" height="1" fill="#00ff00" opacity="0"/>
  <!-- hover -->
    <g id="hover-topleft">
      <rect x="56" y="12" width="6" height="6" class="ColorScheme-ButtonHover" style="fill:currentColor;fill-opacity:1;stroke:none"/>
      <rect x="56" y="12" width="6" height="1" fill="#0a1012"/>
      <rect x="57" y="13" width="5" height="1" fill="#544e42"/>
      <rect x="56" y="12" width="1" height="6" fill="#0a1012"/>
      <rect x="57" y="13" width="1" height="5" fill="#544e42"/>
    </g>
    <g id="hover-top">
      <rect x="62" y="12" width="20" height="6" class="ColorScheme-ButtonHover" style="fill:currentColor;fill-opacity:1;stroke:none"/>
      <rect x="62" y="12" width="20" height="1" fill="#0a1012"/>
      <rect x="62" y="13" width="20" height="1" fill="#544e42"/>
    </g>
    <g id="hover-topright">
      <rect x="82" y="12" width="6" height="6" class="ColorScheme-ButtonHover" style="fill:currentColor;fill-opacity:1;stroke:none"/>
      <rect x="82" y="12" width="6" height="1" fill="#0a1012"/>
      <rect x="82" y="13" width="5" height="1" fill="#544e42"/>
      <rect x="87" y="12" width="1" height="6" fill="#0a1012"/>
      <rect x="86" y="13" width="1" height="5" fill="#16130e"/>
    </g>
    <g id="hover-left">
      <rect x="56" y="18" width="6" height="20" class="ColorScheme-ButtonHover" style="fill:currentColor;fill-opacity:1;stroke:none"/>
      <rect x="56" y="18" width="1" height="20" fill="#0a1012"/>
      <rect x="57" y="18" width="1" height="20" fill="#544e42"/>
    </g>
    <g id="hover-center">
      <rect x="62" y="18" width="20" height="20" class="ColorScheme-ButtonHover" style="fill:currentColor;fill-opacity:1;stroke:none"/>
    </g>
    <g id="hover-right">
      <rect x="82" y="18" width="6" height="20" class="ColorScheme-ButtonHover" style="fill:currentColor;fill-opacity:1;stroke:none"/>
      <rect x="87" y="18" width="1" height="20" fill="#0a1012"/>
      <rect x="86" y="18" width="1" height="20" fill="#16130e"/>
    </g>
    <g id="hover-bottomleft">
      <rect x="56" y="38" width="6" height="6" class="ColorScheme-ButtonHover" style="fill:currentColor;fill-opacity:1;stroke:none"/>
      <rect x="56" y="43" width="6" height="1" fill="#0a1012"/>
      <rect x="57" y="42" width="5" height="1" fill="#16130e"/>
      <rect x="56" y="38" width="1" height="6" fill="#0a1012"/>
      <rect x="57" y="38" width="1" height="5" fill="#544e42"/>
    </g>
    <g id="hover-bottom">
      <rect x="62" y="38" width="20" height="6" class="ColorScheme-ButtonHover" style="fill:currentColor;fill-opacity:1;stroke:none"/>
      <rect x="62" y="43" width="20" height="1" fill="#0a1012"/>
      <rect x="62" y="42" width="20" height="1" fill="#16130e"/>
    </g>
    <g id="hover-bottomright">
      <rect x="82" y="38" width="6" height="6" class="ColorScheme-ButtonHover" style="fill:currentColor;fill-opacity:1;stroke:none"/>
      <rect x="82" y="43" width="6" height="1" fill="#0a1012"/>
      <rect x="82" y="42" width="5" height="1" fill="#16130e"/>
      <rect x="87" y="38" width="1" height="6" fill="#0a1012"/>
      <rect x="86" y="38" width="1" height="5" fill="#16130e"/>
    </g>
    <rect id="hover-hint-top-margin" x="72" y="12" width="2" height="4" fill="#ff00ff" opacity="0"/>
    <rect id="hover-hint-bottom-margin" x="72" y="40" width="2" height="4" fill="#ff00ff" opacity="0"/>
    <rect id="hover-hint-left-margin" x="56" y="28" width="4" height="2" fill="#ff00ff" opacity="0"/>
    <rect id="hover-hint-right-margin" x="84" y="28" width="4" height="2" fill="#ff00ff" opacity="0"/>
    <rect id="hover-hint-compose-over-border" x="59" y="13" width="1" height="1" fill="#00ff00" opacity="0"/>
  <!-- pressed -->
    <g id="pressed-topleft">
      <rect x="100" y="12" width="6" height="6" class="ColorScheme-Background" style="fill:currentColor;fill-opacity:1;stroke:none"/>
      <rect x="100" y="12" width="6" height="1" fill="#0a1012"/>
      <rect x="101" y="13" width="5" height="1" fill="#16130e"/>
      <rect x="100" y="12" width="1" height="6" fill="#0a1012"/>
      <rect x="101" y="13" width="1" height="5" fill="#16130e"/>
    </g>
    <g id="pressed-top">
      <rect x="106" y="12" width="20" height="6" class="ColorScheme-Background" style="fill:currentColor;fill-opacity:1;stroke:none"/>
      <rect x="106" y="12" width="20" height="1" fill="#0a1012"/>
      <rect x="106" y="13" width="20" height="1" fill="#16130e"/>
    </g>
    <g id="pressed-topright">
      <rect x="126" y="12" width="6" height="6" class="ColorScheme-Background" style="fill:currentColor;fill-opacity:1;stroke:none"/>
      <rect x="126" y="12" width="6" height="1" fill="#0a1012"/>
      <rect x="126" y="13" width="5" height="1" fill="#16130e"/>
      <rect x="131" y="12" width="1" height="6" fill="#0a1012"/>
      <rect x="130" y="13" width="1" height="5" fill="#544e42"/>
    </g>
    <g id="pressed-left">
      <rect x="100" y="18" width="6" height="20" class="ColorScheme-Background" style="fill:currentColor;fill-opacity:1;stroke:none"/>
      <rect x="100" y="18" width="1" height="20" fill="#0a1012"/>
      <rect x="101" y="18" width="1" height="20" fill="#16130e"/>
    </g>
    <g id="pressed-center">
      <rect x="106" y="18" width="20" height="20" class="ColorScheme-Background" style="fill:currentColor;fill-opacity:1;stroke:none"/>
    </g>
    <g id="pressed-right">
      <rect x="126" y="18" width="6" height="20" class="ColorScheme-Background" style="fill:currentColor;fill-opacity:1;stroke:none"/>
      <rect x="131" y="18" width="1" height="20" fill="#0a1012"/>
      <rect x="130" y="18" width="1" height="20" fill="#544e42"/>
    </g>
    <g id="pressed-bottomleft">
      <rect x="100" y="38" width="6" height="6" class="ColorScheme-Background" style="fill:currentColor;fill-opacity:1;stroke:none"/>
      <rect x="100" y="43" width="6" height="1" fill="#0a1012"/>
      <rect x="101" y="42" width="5" height="1" fill="#544e42"/>
      <rect x="100" y="38" width="1" height="6" fill="#0a1012"/>
      <rect x="101" y="38" width="1" height="5" fill="#16130e"/>
    </g>
    <g id="pressed-bottom">
      <rect x="106" y="38" width="20" height="6" class="ColorScheme-Background" style="fill:currentColor;fill-opacity:1;stroke:none"/>
      <rect x="106" y="43" width="20" height="1" fill="#0a1012"/>
      <rect x="106" y="42" width="20" height="1" fill="#544e42"/>
    </g>
    <g id="pressed-bottomright">
      <rect x="126" y="38" width="6" height="6" class="ColorScheme-Background" style="fill:currentColor;fill-opacity:1;stroke:none"/>
      <rect x="126" y="43" width="6" height="1" fill="#0a1012"/>
      <rect x="126" y="42" width="5" height="1" fill="#544e42"/>
      <rect x="131" y="38" width="1" height="6" fill="#0a1012"/>
      <rect x="130" y="38" width="1" height="5" fill="#544e42"/>
    </g>
    <rect id="pressed-hint-top-margin" x="116" y="12" width="2" height="4" fill="#ff00ff" opacity="0"/>
    <rect id="pressed-hint-bottom-margin" x="116" y="40" width="2" height="4" fill="#ff00ff" opacity="0"/>
    <rect id="pressed-hint-left-margin" x="100" y="28" width="4" height="2" fill="#ff00ff" opacity="0"/>
    <rect id="pressed-hint-right-margin" x="128" y="28" width="4" height="2" fill="#ff00ff" opacity="0"/>
    <rect id="pressed-hint-compose-over-border" x="103" y="13" width="1" height="1" fill="#00ff00" opacity="0"/>
  <!-- focus -->
    <g id="focus-topleft">
      <rect x="144" y="12" width="6" height="6" class="ColorScheme-ButtonFocus" style="fill:currentColor;fill-opacity:1;stroke:none"/>
      <rect x="144" y="12" width="6" height="1" fill="#0a1012"/>
      <rect x="145" y="13" width="5" height="1" fill="#544e42"/>
      <rect x="144" y="12" width="1" height="6" fill="#0a1012"/>
      <rect x="145" y="13" width="1" height="5" fill="#544e42"/>
    </g>
    <g id="focus-top">
      <rect x="150" y="12" width="20" height="6" class="ColorScheme-ButtonFocus" style="fill:currentColor;fill-opacity:1;stroke:none"/>
      <rect x="150" y="12" width="20" height="1" fill="#0a1012"/>
      <rect x="150" y="13" width="20" height="1" fill="#544e42"/>
    </g>
    <g id="focus-topright">
      <rect x="170" y="12" width="6" height="6" class="ColorScheme-ButtonFocus" style="fill:currentColor;fill-opacity:1;stroke:none"/>
      <rect x="170" y="12" width="6" height="1" fill="#0a1012"/>
      <rect x="170" y="13" width="5" height="1" fill="#544e42"/>
      <rect x="175" y="12" width="1" height="6" fill="#0a1012"/>
      <rect x="174" y="13" width="1" height="5" fill="#16130e"/>
    </g>
    <g id="focus-left">
      <rect x="144" y="18" width="6" height="20" class="ColorScheme-ButtonFocus" style="fill:currentColor;fill-opacity:1;stroke:none"/>
      <rect x="144" y="18" width="1" height="20" fill="#0a1012"/>
      <rect x="145" y="18" width="1" height="20" fill="#544e42"/>
    </g>
    <g id="focus-center">
      <rect x="150" y="18" width="20" height="20" class="ColorScheme-ButtonFocus" style="fill:currentColor;fill-opacity:1;stroke:none"/>
    </g>
    <g id="focus-right">
      <rect x="170" y="18" width="6" height="20" class="ColorScheme-ButtonFocus" style="fill:currentColor;fill-opacity:1;stroke:none"/>
      <rect x="175" y="18" width="1" height="20" fill="#0a1012"/>
      <rect x="174" y="18" width="1" height="20" fill="#16130e"/>
    </g>
    <g id="focus-bottomleft">
      <rect x="144" y="38" width="6" height="6" class="ColorScheme-ButtonFocus" style="fill:currentColor;fill-opacity:1;stroke:none"/>
      <rect x="144" y="43" width="6" height="1" fill="#0a1012"/>
      <rect x="145" y="42" width="5" height="1" fill="#16130e"/>
      <rect x="144" y="38" width="1" height="6" fill="#0a1012"/>
      <rect x="145" y="38" width="1" height="5" fill="#544e42"/>
    </g>
    <g id="focus-bottom">
      <rect x="150" y="38" width="20" height="6" class="ColorScheme-ButtonFocus" style="fill:currentColor;fill-opacity:1;stroke:none"/>
      <rect x="150" y="43" width="20" height="1" fill="#0a1012"/>
      <rect x="150" y="42" width="20" height="1" fill="#16130e"/>
    </g>
    <g id="focus-bottomright">
      <rect x="170" y="38" width="6" height="6" class="ColorScheme-ButtonFocus" style="fill:currentColor;fill-opacity:1;stroke:none"/>
      <rect x="170" y="43" width="6" height="1" fill="#0a1012"/>
      <rect x="170" y="42" width="5" height="1" fill="#16130e"/>
      <rect x="175" y="38" width="1" height="6" fill="#0a1012"/>
      <rect x="174" y="38" width="1" height="5" fill="#16130e"/>
    </g>
    <rect id="focus-hint-top-margin" x="160" y="12" width="2" height="4" fill="#ff00ff" opacity="0"/>
    <rect id="focus-hint-bottom-margin" x="160" y="40" width="2" height="4" fill="#ff00ff" opacity="0"/>
    <rect id="focus-hint-left-margin" x="144" y="28" width="4" height="2" fill="#ff00ff" opacity="0"/>
    <rect id="focus-hint-right-margin" x="172" y="28" width="4" height="2" fill="#ff00ff" opacity="0"/>
    <rect id="focus-hint-compose-over-border" x="147" y="13" width="1" height="1" fill="#00ff00" opacity="0"/>
  <!-- toolbutton-hover -->
    <g id="toolbutton-hover-topleft">
      <rect x="12" y="56" width="6" height="6" class="ColorScheme-ButtonHover" style="fill:currentColor;fill-opacity:1;stroke:none"/>
      <rect x="12" y="56" width="6" height="1" fill="#0a1012"/>
      <rect x="13" y="57" width="5" height="1" fill="#544e42"/>
      <rect x="12" y="56" width="1" height="6" fill="#0a1012"/>
      <rect x="13" y="57" width="1" height="5" fill="#544e42"/>
    </g>
    <g id="toolbutton-hover-top">
      <rect x="18" y="56" width="20" height="6" class="ColorScheme-ButtonHover" style="fill:currentColor;fill-opacity:1;stroke:none"/>
      <rect x="18" y="56" width="20" height="1" fill="#0a1012"/>
      <rect x="18" y="57" width="20" height="1" fill="#544e42"/>
    </g>
    <g id="toolbutton-hover-topright">
      <rect x="38" y="56" width="6" height="6" class="ColorScheme-ButtonHover" style="fill:currentColor;fill-opacity:1;stroke:none"/>
      <rect x="38" y="56" width="6" height="1" fill="#0a1012"/>
      <rect x="38" y="57" width="5" height="1" fill="#544e42"/>
      <rect x="43" y="56" width="1" height="6" fill="#0a1012"/>
      <rect x="42" y="57" width="1" height="5" fill="#16130e"/>
    </g>
    <g id="toolbutton-hover-left">
      <rect x="12" y="62" width="6" height="20" class="ColorScheme-ButtonHover" style="fill:currentColor;fill-opacity:1;stroke:none"/>
      <rect x="12" y="62" width="1" height="20" fill="#0a1012"/>
      <rect x="13" y="62" width="1" height="20" fill="#544e42"/>
    </g>
    <g id="toolbutton-hover-center">
      <rect x="18" y="62" width="20" height="20" class="ColorScheme-ButtonHover" style="fill:currentColor;fill-opacity:1;stroke:none"/>
    </g>
    <g id="toolbutton-hover-right">
      <rect x="38" y="62" width="6" height="20" class="ColorScheme-ButtonHover" style="fill:currentColor;fill-opacity:1;stroke:none"/>
      <rect x="43" y="62" width="1" height="20" fill="#0a1012"/>
      <rect x="42" y="62" width="1" height="20" fill="#16130e"/>
    </g>
    <g id="toolbutton-hover-bottomleft">
      <rect x="12" y="82" width="6" height="6" class="ColorScheme-ButtonHover" style="fill:currentColor;fill-opacity:1;stroke:none"/>
      <rect x="12" y="87" width="6" height="1" fill="#0a1012"/>
      <rect x="13" y="86" width="5" height="1" fill="#16130e"/>
      <rect x="12" y="82" width="1" height="6" fill="#0a1012"/>
      <rect x="13" y="82" width="1" height="5" fill="#544e42"/>
    </g>
    <g id="toolbutton-hover-bottom">
      <rect x="18" y="82" width="20" height="6" class="ColorScheme-ButtonHover" style="fill:currentColor;fill-opacity:1;stroke:none"/>
      <rect x="18" y="87" width="20" height="1" fill="#0a1012"/>
      <rect x="18" y="86" width="20" height="1" fill="#16130e"/>
    </g>
    <g id="toolbutton-hover-bottomright">
      <rect x="38" y="82" width="6" height="6" class="ColorScheme-ButtonHover" style="fill:currentColor;fill-opacity:1;stroke:none"/>
      <rect x="38" y="87" width="6" height="1" fill="#0a1012"/>
      <rect x="38" y="86" width="5" height="1" fill="#16130e"/>
      <rect x="43" y="82" width="1" height="6" fill="#0a1012"/>
      <rect x="42" y="82" width="1" height="5" fill="#16130e"/>
    </g>
    <rect id="toolbutton-hover-hint-top-margin" x="28" y="56" width="2" height="4" fill="#ff00ff" opacity="0"/>
    <rect id="toolbutton-hover-hint-bottom-margin" x="28" y="84" width="2" height="4" fill="#ff00ff" opacity="0"/>
    <rect id="toolbutton-hover-hint-left-margin" x="12" y="72" width="4" height="2" fill="#ff00ff" opacity="0"/>
    <rect id="toolbutton-hover-hint-right-margin" x="40" y="72" width="4" height="2" fill="#ff00ff" opacity="0"/>
    <rect id="toolbutton-hover-hint-compose-over-border" x="15" y="57" width="1" height="1" fill="#00ff00" opacity="0"/>
  <!-- toolbutton-pressed -->
    <g id="toolbutton-pressed-topleft">
      <rect x="56" y="56" width="6" height="6" class="ColorScheme-Background" style="fill:currentColor;fill-opacity:1;stroke:none"/>
      <rect x="56" y="56" width="6" height="1" fill="#0a1012"/>
      <rect x="57" y="57" width="5" height="1" fill="#16130e"/>
      <rect x="56" y="56" width="1" height="6" fill="#0a1012"/>
      <rect x="57" y="57" width="1" height="5" fill="#16130e"/>
    </g>
    <g id="toolbutton-pressed-top">
      <rect x="62" y="56" width="20" height="6" class="ColorScheme-Background" style="fill:currentColor;fill-opacity:1;stroke:none"/>
      <rect x="62" y="56" width="20" height="1" fill="#0a1012"/>
      <rect x="62" y="57" width="20" height="1" fill="#16130e"/>
    </g>
    <g id="toolbutton-pressed-topright">
      <rect x="82" y="56" width="6" height="6" class="ColorScheme-Background" style="fill:currentColor;fill-opacity:1;stroke:none"/>
      <rect x="82" y="56" width="6" height="1" fill="#0a1012"/>
      <rect x="82" y="57" width="5" height="1" fill="#16130e"/>
      <rect x="87" y="56" width="1" height="6" fill="#0a1012"/>
      <rect x="86" y="57" width="1" height="5" fill="#544e42"/>
    </g>
    <g id="toolbutton-pressed-left">
      <rect x="56" y="62" width="6" height="20" class="ColorScheme-Background" style="fill:currentColor;fill-opacity:1;stroke:none"/>
      <rect x="56" y="62" width="1" height="20" fill="#0a1012"/>
      <rect x="57" y="62" width="1" height="20" fill="#16130e"/>
    </g>
    <g id="toolbutton-pressed-center">
      <rect x="62" y="62" width="20" height="20" class="ColorScheme-Background" style="fill:currentColor;fill-opacity:1;stroke:none"/>
    </g>
    <g id="toolbutton-pressed-right">
      <rect x="82" y="62" width="6" height="20" class="ColorScheme-Background" style="fill:currentColor;fill-opacity:1;stroke:none"/>
      <rect x="87" y="62" width="1" height="20" fill="#0a1012"/>
      <rect x="86" y="62" width="1" height="20" fill="#544e42"/>
    </g>
    <g id="toolbutton-pressed-bottomleft">
      <rect x="56" y="82" width="6" height="6" class="ColorScheme-Background" style="fill:currentColor;fill-opacity:1;stroke:none"/>
      <rect x="56" y="87" width="6" height="1" fill="#0a1012"/>
      <rect x="57" y="86" width="5" height="1" fill="#544e42"/>
      <rect x="56" y="82" width="1" height="6" fill="#0a1012"/>
      <rect x="57" y="82" width="1" height="5" fill="#16130e"/>
    </g>
    <g id="toolbutton-pressed-bottom">
      <rect x="62" y="82" width="20" height="6" class="ColorScheme-Background" style="fill:currentColor;fill-opacity:1;stroke:none"/>
      <rect x="62" y="87" width="20" height="1" fill="#0a1012"/>
      <rect x="62" y="86" width="20" height="1" fill="#544e42"/>
    </g>
    <g id="toolbutton-pressed-bottomright">
      <rect x="82" y="82" width="6" height="6" class="ColorScheme-Background" style="fill:currentColor;fill-opacity:1;stroke:none"/>
      <rect x="82" y="87" width="6" height="1" fill="#0a1012"/>
      <rect x="82" y="86" width="5" height="1" fill="#544e42"/>
      <rect x="87" y="82" width="1" height="6" fill="#0a1012"/>
      <rect x="86" y="82" width="1" height="5" fill="#544e42"/>
    </g>
    <rect id="toolbutton-pressed-hint-top-margin" x="72" y="56" width="2" height="4" fill="#ff00ff" opacity="0"/>
    <rect id="toolbutton-pressed-hint-bottom-margin" x="72" y="84" width="2" height="4" fill="#ff00ff" opacity="0"/>
    <rect id="toolbutton-pressed-hint-left-margin" x="56" y="72" width="4" height="2" fill="#ff00ff" opacity="0"/>
    <rect id="toolbutton-pressed-hint-right-margin" x="84" y="72" width="4" height="2" fill="#ff00ff" opacity="0"/>
    <rect id="toolbutton-pressed-hint-compose-over-border" x="59" y="57" width="1" height="1" fill="#00ff00" opacity="0"/>
  <!-- toolbutton-focus -->
    <g id="toolbutton-focus-topleft">
      <rect x="100" y="56" width="6" height="6" class="ColorScheme-ButtonFocus" style="fill:currentColor;fill-opacity:1;stroke:none"/>
      <rect x="100" y="56" width="6" height="1" fill="#0a1012"/>
      <rect x="101" y="57" width="5" height="1" fill="#544e42"/>
      <rect x="100" y="56" width="1" height="6" fill="#0a1012"/>
      <rect x="101" y="57" width="1" height="5" fill="#544e42"/>
    </g>
    <g id="toolbutton-focus-top">
      <rect x="106" y="56" width="20" height="6" class="ColorScheme-ButtonFocus" style="fill:currentColor;fill-opacity:1;stroke:none"/>
      <rect x="106" y="56" width="20" height="1" fill="#0a1012"/>
      <rect x="106" y="57" width="20" height="1" fill="#544e42"/>
    </g>
    <g id="toolbutton-focus-topright">
      <rect x="126" y="56" width="6" height="6" class="ColorScheme-ButtonFocus" style="fill:currentColor;fill-opacity:1;stroke:none"/>
      <rect x="126" y="56" width="6" height="1" fill="#0a1012"/>
      <rect x="126" y="57" width="5" height="1" fill="#544e42"/>
      <rect x="131" y="56" width="1" height="6" fill="#0a1012"/>
      <rect x="130" y="57" width="1" height="5" fill="#16130e"/>
    </g>
    <g id="toolbutton-focus-left">
      <rect x="100" y="62" width="6" height="20" class="ColorScheme-ButtonFocus" style="fill:currentColor;fill-opacity:1;stroke:none"/>
      <rect x="100" y="62" width="1" height="20" fill="#0a1012"/>
      <rect x="101" y="62" width="1" height="20" fill="#544e42"/>
    </g>
    <g id="toolbutton-focus-center">
      <rect x="106" y="62" width="20" height="20" class="ColorScheme-ButtonFocus" style="fill:currentColor;fill-opacity:1;stroke:none"/>
    </g>
    <g id="toolbutton-focus-right">
      <rect x="126" y="62" width="6" height="20" class="ColorScheme-ButtonFocus" style="fill:currentColor;fill-opacity:1;stroke:none"/>
      <rect x="131" y="62" width="1" height="20" fill="#0a1012"/>
      <rect x="130" y="62" width="1" height="20" fill="#16130e"/>
    </g>
    <g id="toolbutton-focus-bottomleft">
      <rect x="100" y="82" width="6" height="6" class="ColorScheme-ButtonFocus" style="fill:currentColor;fill-opacity:1;stroke:none"/>
      <rect x="100" y="87" width="6" height="1" fill="#0a1012"/>
      <rect x="101" y="86" width="5" height="1" fill="#16130e"/>
      <rect x="100" y="82" width="1" height="6" fill="#0a1012"/>
      <rect x="101" y="82" width="1" height="5" fill="#544e42"/>
    </g>
    <g id="toolbutton-focus-bottom">
      <rect x="106" y="82" width="20" height="6" class="ColorScheme-ButtonFocus" style="fill:currentColor;fill-opacity:1;stroke:none"/>
      <rect x="106" y="87" width="20" height="1" fill="#0a1012"/>
      <rect x="106" y="86" width="20" height="1" fill="#16130e"/>
    </g>
    <g id="toolbutton-focus-bottomright">
      <rect x="126" y="82" width="6" height="6" class="ColorScheme-ButtonFocus" style="fill:currentColor;fill-opacity:1;stroke:none"/>
      <rect x="126" y="87" width="6" height="1" fill="#0a1012"/>
      <rect x="126" y="86" width="5" height="1" fill="#16130e"/>
      <rect x="131" y="82" width="1" height="6" fill="#0a1012"/>
      <rect x="130" y="82" width="1" height="5" fill="#16130e"/>
    </g>
    <rect id="toolbutton-focus-hint-top-margin" x="116" y="56" width="2" height="4" fill="#ff00ff" opacity="0"/>
    <rect id="toolbutton-focus-hint-bottom-margin" x="116" y="84" width="2" height="4" fill="#ff00ff" opacity="0"/>
    <rect id="toolbutton-focus-hint-left-margin" x="100" y="72" width="4" height="2" fill="#ff00ff" opacity="0"/>
    <rect id="toolbutton-focus-hint-right-margin" x="128" y="72" width="4" height="2" fill="#ff00ff" opacity="0"/>
    <rect id="toolbutton-focus-hint-compose-over-border" x="103" y="57" width="1" height="1" fill="#00ff00" opacity="0"/>
  <!-- mask-normal -->
    <g id="mask-normal-topleft">
      <rect x="144" y="56" width="6" height="6" fill="#32302a"/>
      <rect x="144" y="56" width="6" height="1" fill="#ffffff"/>
      <rect x="145" y="57" width="5" height="1" fill="#ffffff"/>
      <rect x="144" y="56" width="1" height="6" fill="#ffffff"/>
      <rect x="145" y="57" width="1" height="5" fill="#ffffff"/>
    </g>
    <g id="mask-normal-top">
      <rect x="150" y="56" width="20" height="6" fill="#32302a"/>
      <rect x="150" y="56" width="20" height="1" fill="#ffffff"/>
      <rect x="150" y="57" width="20" height="1" fill="#ffffff"/>
    </g>
    <g id="mask-normal-topright">
      <rect x="170" y="56" width="6" height="6" fill="#32302a"/>
      <rect x="170" y="56" width="6" height="1" fill="#ffffff"/>
      <rect x="170" y="57" width="5" height="1" fill="#ffffff"/>
      <rect x="175" y="56" width="1" height="6" fill="#ffffff"/>
      <rect x="174" y="57" width="1" height="5" fill="#ffffff"/>
    </g>
    <g id="mask-normal-left">
      <rect x="144" y="62" width="6" height="20" fill="#32302a"/>
      <rect x="144" y="62" width="1" height="20" fill="#ffffff"/>
      <rect x="145" y="62" width="1" height="20" fill="#ffffff"/>
    </g>
    <g id="mask-normal-center">
      <rect x="150" y="62" width="20" height="20" fill="#32302a"/>
    </g>
    <g id="mask-normal-right">
      <rect x="170" y="62" width="6" height="20" fill="#32302a"/>
      <rect x="175" y="62" width="1" height="20" fill="#ffffff"/>
      <rect x="174" y="62" width="1" height="20" fill="#ffffff"/>
    </g>
    <g id="mask-normal-bottomleft">
      <rect x="144" y="82" width="6" height="6" fill="#32302a"/>
      <rect x="144" y="87" width="6" height="1" fill="#ffffff"/>
      <rect x="145" y="86" width="5" height="1" fill="#ffffff"/>
      <rect x="144" y="82" width="1" height="6" fill="#ffffff"/>
      <rect x="145" y="82" width="1" height="5" fill="#ffffff"/>
    </g>
    <g id="mask-normal-bottom">
      <rect x="150" y="82" width="20" height="6" fill="#32302a"/>
      <rect x="150" y="87" width="20" height="1" fill="#ffffff"/>
      <rect x="150" y="86" width="20" height="1" fill="#ffffff"/>
    </g>
    <g id="mask-normal-bottomright">
      <rect x="170" y="82" width="6" height="6" fill="#32302a"/>
      <rect x="170" y="87" width="6" height="1" fill="#ffffff"/>
      <rect x="170" y="86" width="5" height="1" fill="#ffffff"/>
      <rect x="175" y="82" width="1" height="6" fill="#ffffff"/>
      <rect x="174" y="82" width="1" height="5" fill="#ffffff"/>
    </g>
</svg>
