<?xml version="1.0" encoding="UTF-8"?>
<svg xmlns="http://www.w3.org/2000/svg" width="188" height="56" viewBox="0 0 188 56">
  <!-- scrollbar.svg — Bildlaufleisten -->
  <!-- Erzeugt von tools/gen-plasma-svg.py. Die Element-IDs sind
       die Schnittstelle zu Plasma: bitte nicht umbenennen. -->
  <defs>
    <style id="current-color-scheme" type="text/css">
      .ColorScheme-Text { color:#202628; stop-color:#202628; }
      .ColorScheme-Background { color:#d8d0c0; stop-color:#d8d0c0; }
      .ColorScheme-Highlight { color:#96703a; stop-color:#96703a; }
      .ColorScheme-ViewText { color:#202628; stop-color:#202628; }
      .ColorScheme-ViewBackground { color:#f0ece0; stop-color:#f0ece0; }
      .ColorScheme-ViewHover { color:#c87922; stop-color:#c87922; }
      .ColorScheme-ViewFocus { color:#96703a; stop-color:#96703a; }
      .ColorScheme-ButtonText { color:#202628; stop-color:#202628; }
      .ColorScheme-ButtonBackground { color:#d8d0c0; stop-color:#d8d0c0; }
      .ColorScheme-ButtonHover { color:#c87922; stop-color:#c87922; }
      .ColorScheme-ButtonFocus { color:#96703a; stop-color:#96703a; }
      .ColorScheme-HighlightedText { color:#f0ece0; stop-color:#f0ece0; }
      .ColorScheme-ComplementaryBackground { color:#c8bca4; stop-color:#c8bca4; }
      .ColorScheme-NegativeText { color:#a83232; stop-color:#a83232; }
      .ColorScheme-NeutralText { color:#c87922; stop-color:#c87922; }
      .ColorScheme-PositiveText { color:#39734a; stop-color:#39734a; }
    </style>
  </defs>
  <!-- background-vertical -->
    <g id="background-vertical-topleft">
      <rect x="12" y="12" width="3" height="3" class="ColorScheme-Background" style="fill:currentColor;fill-opacity:1;stroke:none"/>
      <rect x="12" y="12" width="3" height="1" fill="#202628"/>
      <rect x="13" y="13" width="2" height="1" fill="#f4f0e6"/>
      <rect x="12" y="12" width="1" height="3" fill="#202628"/>
      <rect x="13" y="13" width="1" height="2" fill="#f4f0e6"/>
    </g>
    <g id="background-vertical-top">
      <rect x="15" y="12" width="26" height="3" class="ColorScheme-Background" style="fill:currentColor;fill-opacity:1;stroke:none"/>
      <rect x="15" y="12" width="26" height="1" fill="#202628"/>
      <rect x="15" y="13" width="26" height="1" fill="#f4f0e6"/>
    </g>
    <g id="background-vertical-topright">
      <rect x="41" y="12" width="3" height="3" class="ColorScheme-Background" style="fill:currentColor;fill-opacity:1;stroke:none"/>
      <rect x="41" y="12" width="3" height="1" fill="#202628"/>
      <rect x="41" y="13" width="2" height="1" fill="#f4f0e6"/>
      <rect x="43" y="12" width="1" height="3" fill="#202628"/>
      <rect x="42" y="13" width="1" height="2" fill="#8a8272"/>
    </g>
    <g id="background-vertical-left">
      <rect x="12" y="15" width="3" height="26" class="ColorScheme-Background" style="fill:currentColor;fill-opacity:1;stroke:none"/>
      <rect x="12" y="15" width="1" height="26" fill="#202628"/>
      <rect x="13" y="15" width="1" height="26" fill="#f4f0e6"/>
    </g>
    <g id="background-vertical-center">
      <rect x="15" y="15" width="26" height="26" class="ColorScheme-Background" style="fill:currentColor;fill-opacity:1;stroke:none"/>
      <rect x="15" y="15" width="26" height="26" fill="#000000" opacity="0.07"/>
      <line x1="15" y1="15.5" x2="41" y2="15.5" stroke="#fcfaf2" stroke-width="1" stroke-dasharray="1 1"/>
      <line x1="16" y1="16.5" x2="41" y2="16.5" stroke="#fcfaf2" stroke-width="1" stroke-dasharray="1 1"/>
      <line x1="15" y1="17.5" x2="41" y2="17.5" stroke="#fcfaf2" stroke-width="1" stroke-dasharray="1 1"/>
      <line x1="16" y1="18.5" x2="41" y2="18.5" stroke="#fcfaf2" stroke-width="1" stroke-dasharray="1 1"/>
      <line x1="15" y1="19.5" x2="41" y2="19.5" stroke="#fcfaf2" stroke-width="1" stroke-dasharray="1 1"/>
      <line x1="16" y1="20.5" x2="41" y2="20.5" stroke="#fcfaf2" stroke-width="1" stroke-dasharray="1 1"/>
      <line x1="15" y1="21.5" x2="41" y2="21.5" stroke="#fcfaf2" stroke-width="1" stroke-dasharray="1 1"/>
      <line x1="16" y1="22.5" x2="41" y2="22.5" stroke="#fcfaf2" stroke-width="1" stroke-dasharray="1 1"/>
      <line x1="15" y1="23.5" x2="41" y2="23.5" stroke="#fcfaf2" stroke-width="1" stroke-dasharray="1 1"/>
      <line x1="16" y1="24.5" x2="41" y2="24.5" stroke="#fcfaf2" stroke-width="1" stroke-dasharray="1 1"/>
      <line x1="15" y1="25.5" x2="41" y2="25.5" stroke="#fcfaf2" stroke-width="1" stroke-dasharray="1 1"/>
      <line x1="16" y1="26.5" x2="41" y2="26.5" stroke="#fcfaf2" stroke-width="1" stroke-dasharray="1 1"/>
      <line x1="15" y1="27.5" x2="41" y2="27.5" stroke="#fcfaf2" stroke-width="1" stroke-dasharray="1 1"/>
      <line x1="16" y1="28.5" x2="41" y2="28.5" stroke="#fcfaf2" stroke-width="1" stroke-dasharray="1 1"/>
      <line x1="15" y1="29.5" x2="41" y2="29.5" stroke="#fcfaf2" stroke-width="1" stroke-dasharray="1 1"/>
      <line x1="16" y1="30.5" x2="41" y2="30.5" stroke="#fcfaf2" stroke-width="1" stroke-dasharray="1 1"/>
      <line x1="15" y1="31.5" x2="41" y2="31.5" stroke="#fcfaf2" stroke-width="1" stroke-dasharray="1 1"/>
      <line x1="16" y1="32.5" x2="41" y2="32.5" stroke="#fcfaf2" stroke-width="1" stroke-dasharray="1 1"/>
      <line x1="15" y1="33.5" x2="41" y2="33.5" stroke="#fcfaf2" stroke-width="1" stroke-dasharray="1 1"/>
      <line x1="16" y1="34.5" x2="41" y2="34.5" stroke="#fcfaf2" stroke-width="1" stroke-dasharray="1 1"/>
      <line x1="15" y1="35.5" x2="41" y2="35.5" stroke="#fcfaf2" stroke-width="1" stroke-dasharray="1 1"/>
      <line x1="16" y1="36.5" x2="41" y2="36.5" stroke="#fcfaf2" stroke-width="1" stroke-dasharray="1 1"/>
      <line x1="15" y1="37.5" x2="41" y2="37.5" stroke="#fcfaf2" stroke-width="1" stroke-dasharray="1 1"/>
      <line x1="16" y1="38.5" x2="41" y2="38.5" stroke="#fcfaf2" stroke-width="1" stroke-dasharray="1 1"/>
      <line x1="15" y1="39.5" x2="41" y2="39.5" stroke="#fcfaf2" stroke-width="1" stroke-dasharray="1 1"/>
      <line x1="16" y1="40.5" x2="41" y2="40.5" stroke="#fcfaf2" stroke-width="1" stroke-dasharray="1 1"/>
    </g>
    <g id="background-vertical-right">
      <rect x="41" y="15" width="3" height="26" class="ColorScheme-Background" style="fill:currentColor;fill-opacity:1;stroke:none"/>
      <rect x="43" y="15" width="1" height="26" fill="#202628"/>
      <rect x="42" y="15" width="1" height="26" fill="#8a8272"/>
    </g>
    <g id="background-vertical-bottomleft">
      <rect x="12" y="41" width="3" height="3" class="ColorScheme-Background" style="fill:currentColor;fill-opacity:1;stroke:none"/>
      <rect x="12" y="43" width="3" height="1" fill="#202628"/>
      <rect x="13" y="42" width="2" height="1" fill="#8a8272"/>
      <rect x="12" y="41" width="1" height="3" fill="#202628"/>
      <rect x="13" y="41" width="1" height="2" fill="#f4f0e6"/>
    </g>
    <g id="background-vertical-bottom">
      <rect x="15" y="41" width="26" height="3" class="ColorScheme-Background" style="fill:currentColor;fill-opacity:1;stroke:none"/>
      <rect x="15" y="43" width="26" height="1" fill="#202628"/>
      <rect x="15" y="42" width="26" height="1" fill="#8a8272"/>
    </g>
    <g id="background-vertical-bottomright">
      <rect x="41" y="41" width="3" height="3" class="ColorScheme-Background" style="fill:currentColor;fill-opacity:1;stroke:none"/>
      <rect x="41" y="43" width="3" height="1" fill="#202628"/>
      <rect x="41" y="42" width="2" height="1" fill="#8a8272"/>
      <rect x="43" y="41" width="1" height="3" fill="#202628"/>
      <rect x="42" y="41" width="1" height="2" fill="#8a8272"/>
    </g>
    <rect id="background-vertical-hint-scrollbar-size" x="13" y="15" width="6" height="6" fill="#00ff00" opacity="0"/>
  <!-- background-horizontal -->
    <g id="background-horizontal-topleft">
      <rect x="56" y="12" width="3" height="3" class="ColorScheme-Background" style="fill:currentColor;fill-opacity:1;stroke:none"/>
      <rect x="56" y="12" width="3" height="1" fill="#202628"/>
      <rect x="57" y="13" width="2" height="1" fill="#f4f0e6"/>
      <rect x="56" y="12" width="1" height="3" fill="#202628"/>
      <rect x="57" y="13" width="1" height="2" fill="#f4f0e6"/>
    </g>
    <g id="background-horizontal-top">
      <rect x="59" y="12" width="26" height="3" class="ColorScheme-Background" style="fill:currentColor;fill-opacity:1;stroke:none"/>
      <rect x="59" y="12" width="26" height="1" fill="#202628"/>
      <rect x="59" y="13" width="26" height="1" fill="#f4f0e6"/>
    </g>
    <g id="background-horizontal-topright">
      <rect x="85" y="12" width="3" height="3" class="ColorScheme-Background" style="fill:currentColor;fill-opacity:1;stroke:none"/>
      <rect x="85" y="12" width="3" height="1" fill="#202628"/>
      <rect x="85" y="13" width="2" height="1" fill="#f4f0e6"/>
      <rect x="87" y="12" width="1" height="3" fill="#202628"/>
      <rect x="86" y="13" width="1" height="2" fill="#8a8272"/>
    </g>
    <g id="background-horizontal-left">
      <rect x="56" y="15" width="3" height="26" class="ColorScheme-Background" style="fill:currentColor;fill-opacity:1;stroke:none"/>
      <rect x="56" y="15" width="1" height="26" fill="#202628"/>
      <rect x="57" y="15" width="1" height="26" fill="#f4f0e6"/>
    </g>
    <g id="background-horizontal-center">
      <rect x="59" y="15" width="26" height="26" class="ColorScheme-Background" style="fill:currentColor;fill-opacity:1;stroke:none"/>
      <rect x="59" y="15" width="26" height="26" fill="#000000" opacity="0.07"/>
      <line x1="59" y1="15.5" x2="85" y2="15.5" stroke="#fcfaf2" stroke-width="1" stroke-dasharray="1 1"/>
      <line x1="60" y1="16.5" x2="85" y2="16.5" stroke="#fcfaf2" stroke-width="1" stroke-dasharray="1 1"/>
      <line x1="59" y1="17.5" x2="85" y2="17.5" stroke="#fcfaf2" stroke-width="1" stroke-dasharray="1 1"/>
      <line x1="60" y1="18.5" x2="85" y2="18.5" stroke="#fcfaf2" stroke-width="1" stroke-dasharray="1 1"/>
      <line x1="59" y1="19.5" x2="85" y2="19.5" stroke="#fcfaf2" stroke-width="1" stroke-dasharray="1 1"/>
      <line x1="60" y1="20.5" x2="85" y2="20.5" stroke="#fcfaf2" stroke-width="1" stroke-dasharray="1 1"/>
      <line x1="59" y1="21.5" x2="85" y2="21.5" stroke="#fcfaf2" stroke-width="1" stroke-dasharray="1 1"/>
      <line x1="60" y1="22.5" x2="85" y2="22.5" stroke="#fcfaf2" stroke-width="1" stroke-dasharray="1 1"/>
      <line x1="59" y1="23.5" x2="85" y2="23.5" stroke="#fcfaf2" stroke-width="1" stroke-dasharray="1 1"/>
      <line x1="60" y1="24.5" x2="85" y2="24.5" stroke="#fcfaf2" stroke-width="1" stroke-dasharray="1 1"/>
      <line x1="59" y1="25.5" x2="85" y2="25.5" stroke="#fcfaf2" stroke-width="1" stroke-dasharray="1 1"/>
      <line x1="60" y1="26.5" x2="85" y2="26.5" stroke="#fcfaf2" stroke-width="1" stroke-dasharray="1 1"/>
      <line x1="59" y1="27.5" x2="85" y2="27.5" stroke="#fcfaf2" stroke-width="1" stroke-dasharray="1 1"/>
      <line x1="60" y1="28.5" x2="85" y2="28.5" stroke="#fcfaf2" stroke-width="1" stroke-dasharray="1 1"/>
      <line x1="59" y1="29.5" x2="85" y2="29.5" stroke="#fcfaf2" stroke-width="1" stroke-dasharray="1 1"/>
      <line x1="60" y1="30.5" x2="85" y2="30.5" stroke="#fcfaf2" stroke-width="1" stroke-dasharray="1 1"/>
      <line x1="59" y1="31.5" x2="85" y2="31.5" stroke="#fcfaf2" stroke-width="1" stroke-dasharray="1 1"/>
      <line x1="60" y1="32.5" x2="85" y2="32.5" stroke="#fcfaf2" stroke-width="1" stroke-dasharray="1 1"/>
      <line x1="59" y1="33.5" x2="85" y2="33.5" stroke="#fcfaf2" stroke-width="1" stroke-dasharray="1 1"/>
      <line x1="60" y1="34.5" x2="85" y2="34.5" stroke="#fcfaf2" stroke-width="1" stroke-dasharray="1 1"/>
      <line x1="59" y1="35.5" x2="85" y2="35.5" stroke="#fcfaf2" stroke-width="1" stroke-dasharray="1 1"/>
      <line x1="60" y1="36.5" x2="85" y2="36.5" stroke="#fcfaf2" stroke-width="1" stroke-dasharray="1 1"/>
      <line x1="59" y1="37.5" x2="85" y2="37.5" stroke="#fcfaf2" stroke-width="1" stroke-dasharray="1 1"/>
      <line x1="60" y1="38.5" x2="85" y2="38.5" stroke="#fcfaf2" stroke-width="1" stroke-dasharray="1 1"/>
      <line x1="59" y1="39.5" x2="85" y2="39.5" stroke="#fcfaf2" stroke-width="1" stroke-dasharray="1 1"/>
      <line x1="60" y1="40.5" x2="85" y2="40.5" stroke="#fcfaf2" stroke-width="1" stroke-dasharray="1 1"/>
    </g>
    <g id="background-horizontal-right">
      <rect x="85" y="15" width="3" height="26" class="ColorScheme-Background" style="fill:currentColor;fill-opacity:1;stroke:none"/>
      <rect x="87" y="15" width="1" height="26" fill="#202628"/>
      <rect x="86" y="15" width="1" height="26" fill="#8a8272"/>
    </g>
    <g id="background-horizontal-bottomleft">
      <rect x="56" y="41" width="3" height="3" class="ColorScheme-Background" style="fill:currentColor;fill-opacity:1;stroke:none"/>
      <rect x="56" y="43" width="3" height="1" fill="#202628"/>
      <rect x="57" y="42" width="2" height="1" fill="#8a8272"/>
      <rect x="56" y="41" width="1" height="3" fill="#202628"/>
      <rect x="57" y="41" width="1" height="2" fill="#f4f0e6"/>
    </g>
    <g id="background-horizontal-bottom">
      <rect x="59" y="41" width="26" height="3" class="ColorScheme-Background" style="fill:currentColor;fill-opacity:1;stroke:none"/>
      <rect x="59" y="43" width="26" height="1" fill="#202628"/>
      <rect x="59" y="42" width="26" height="1" fill="#8a8272"/>
    </g>
    <g id="background-horizontal-bottomright">
      <rect x="85" y="41" width="3" height="3" class="ColorScheme-Background" style="fill:currentColor;fill-opacity:1;stroke:none"/>
      <rect x="85" y="43" width="3" height="1" fill="#202628"/>
      <rect x="85" y="42" width="2" height="1" fill="#8a8272"/>
      <rect x="87" y="41" width="1" height="3" fill="#202628"/>
      <rect x="86" y="41" width="1" height="2" fill="#8a8272"/>
    </g>
    <rect id="background-horizontal-hint-scrollbar-size" x="57" y="15" width="6" height="6" fill="#00ff00" opacity="0"/>
  <!-- slider -->
    <g id="slider-topleft">
      <rect x="100" y="12" width="3" height="3" class="ColorScheme-Background" style="fill:currentColor;fill-opacity:1;stroke:none"/>
      <rect x="100" y="12" width="3" height="1" fill="#202628"/>
      <rect x="101" y="13" width="2" height="1" fill="#f4f0e6"/>
      <rect x="100" y="12" width="1" height="3" fill="#202628"/>
      <rect x="101" y="13" width="1" height="2" fill="#f4f0e6"/>
    </g>
    <g id="slider-top">
      <rect x="103" y="12" width="26" height="3" class="ColorScheme-Background" style="fill:currentColor;fill-opacity:1;stroke:none"/>
      <rect x="103" y="12" width="26" height="1" fill="#202628"/>
      <rect x="103" y="13" width="26" height="1" fill="#f4f0e6"/>
    </g>
    <g id="slider-topright">
      <rect x="129" y="12" width="3" height="3" class="ColorScheme-Background" style="fill:currentColor;fill-opacity:1;stroke:none"/>
      <rect x="129" y="12" width="3" height="1" fill="#202628"/>
      <rect x="129" y="13" width="2" height="1" fill="#f4f0e6"/>
      <rect x="131" y="12" width="1" height="3" fill="#202628"/>
      <rect x="130" y="13" width="1" height="2" fill="#8a8272"/>
    </g>
    <g id="slider-left">
      <rect x="100" y="15" width="3" height="26" class="ColorScheme-Background" style="fill:currentColor;fill-opacity:1;stroke:none"/>
      <rect x="100" y="15" width="1" height="26" fill="#202628"/>
      <rect x="101" y="15" width="1" height="26" fill="#f4f0e6"/>
    </g>
    <g id="slider-center">
      <rect x="103" y="15" width="26" height="26" class="ColorScheme-Background" style="fill:currentColor;fill-opacity:1;stroke:none"/>
    </g>
    <g id="slider-right">
      <rect x="129" y="15" width="3" height="26" class="ColorScheme-Background" style="fill:currentColor;fill-opacity:1;stroke:none"/>
      <rect x="131" y="15" width="1" height="26" fill="#202628"/>
      <rect x="130" y="15" width="1" height="26" fill="#8a8272"/>
    </g>
    <g id="slider-bottomleft">
      <rect x="100" y="41" width="3" height="3" class="ColorScheme-Background" style="fill:currentColor;fill-opacity:1;stroke:none"/>
      <rect x="100" y="43" width="3" height="1" fill="#202628"/>
      <rect x="101" y="42" width="2" height="1" fill="#8a8272"/>
      <rect x="100" y="41" width="1" height="3" fill="#202628"/>
      <rect x="101" y="41" width="1" height="2" fill="#f4f0e6"/>
    </g>
    <g id="slider-bottom">
      <rect x="103" y="41" width="26" height="3" class="ColorScheme-Background" style="fill:currentColor;fill-opacity:1;stroke:none"/>
      <rect x="103" y="43" width="26" height="1" fill="#202628"/>
      <rect x="103" y="42" width="26" height="1" fill="#8a8272"/>
    </g>
    <g id="slider-bottomright">
      <rect x="129" y="41" width="3" height="3" class="ColorScheme-Background" style="fill:currentColor;fill-opacity:1;stroke:none"/>
      <rect x="129" y="43" width="3" height="1" fill="#202628"/>
      <rect x="129" y="42" width="2" height="1" fill="#8a8272"/>
      <rect x="131" y="41" width="1" height="3" fill="#202628"/>
      <rect x="130" y="41" width="1" height="2" fill="#8a8272"/>
    </g>
    <rect id="slider-hint-scrollbar-size" x="101" y="15" width="6" height="6" fill="#00ff00" opacity="0"/>
  <!-- mouseover-slider -->
    <g id="mouseover-slider-topleft">
      <rect x="144" y="12" width="3" height="3" class="ColorScheme-ButtonHover" style="fill:currentColor;fill-opacity:1;stroke:none"/>
      <rect x="144" y="12" width="3" height="1" fill="#202628"/>
      <rect x="145" y="13" width="2" height="1" fill="#f4f0e6"/>
      <rect x="144" y="12" width="1" height="3" fill="#202628"/>
      <rect x="145" y="13" width="1" height="2" fill="#f4f0e6"/>
    </g>
    <g id="mouseover-slider-top">
      <rect x="147" y="12" width="26" height="3" class="ColorScheme-ButtonHover" style="fill:currentColor;fill-opacity:1;stroke:none"/>
      <rect x="147" y="12" width="26" height="1" fill="#202628"/>
      <rect x="147" y="13" width="26" height="1" fill="#f4f0e6"/>
    </g>
    <g id="mouseover-slider-topright">
      <rect x="173" y="12" width="3" height="3" class="ColorScheme-ButtonHover" style="fill:currentColor;fill-opacity:1;stroke:none"/>
      <rect x="173" y="12" width="3" height="1" fill="#202628"/>
      <rect x="173" y="13" width="2" height="1" fill="#f4f0e6"/>
      <rect x="175" y="12" width="1" height="3" fill="#202628"/>
      <rect x="174" y="13" width="1" height="2" fill="#8a8272"/>
    </g>
    <g id="mouseover-slider-left">
      <rect x="144" y="15" width="3" height="26" class="ColorScheme-ButtonHover" style="fill:currentColor;fill-opacity:1;stroke:none"/>
      <rect x="144" y="15" width="1" height="26" fill="#202628"/>
      <rect x="145" y="15" width="1" height="26" fill="#f4f0e6"/>
    </g>
    <g id="mouseover-slider-center">
      <rect x="147" y="15" width="26" height="26" class="ColorScheme-ButtonHover" style="fill:currentColor;fill-opacity:1;stroke:none"/>
    </g>
    <g id="mouseover-slider-right">
      <rect x="173" y="15" width="3" height="26" class="ColorScheme-ButtonHover" style="fill:currentColor;fill-opacity:1;stroke:none"/>
      <rect x="175" y="15" width="1" height="26" fill="#202628"/>
      <rect x="174" y="15" width="1" height="26" fill="#8a8272"/>
    </g>
    <g id="mouseover-slider-bottomleft">
      <rect x="144" y="41" width="3" height="3" class="ColorScheme-ButtonHover" style="fill:currentColor;fill-opacity:1;stroke:none"/>
      <rect x="144" y="43" width="3" height="1" fill="#202628"/>
      <rect x="145" y="42" width="2" height="1" fill="#8a8272"/>
      <rect x="144" y="41" width="1" height="3" fill="#202628"/>
      <rect x="145" y="41" width="1" height="2" fill="#f4f0e6"/>
    </g>
    <g id="mouseover-slider-bottom">
      <rect x="147" y="41" width="26" height="3" class="ColorScheme-ButtonHover" style="fill:currentColor;fill-opacity:1;stroke:none"/>
      <rect x="147" y="43" width="26" height="1" fill="#202628"/>
      <rect x="147" y="42" width="26" height="1" fill="#8a8272"/>
    </g>
    <g id="mouseover-slider-bottomright">
      <rect x="173" y="41" width="3" height="3" class="ColorScheme-ButtonHover" style="fill:currentColor;fill-opacity:1;stroke:none"/>
      <rect x="173" y="43" width="3" height="1" fill="#202628"/>
      <rect x="173" y="42" width="2" height="1" fill="#8a8272"/>
      <rect x="175" y="41" width="1" height="3" fill="#202628"/>
      <rect x="174" y="41" width="1" height="2" fill="#8a8272"/>
    </g>
    <rect id="mouseover-slider-hint-scrollbar-size" x="145" y="15" width="6" height="6" fill="#00ff00" opacity="0"/>
  <!-- Mittelteil kacheln statt strecken -->
    <rect id="hint-tile-center" x="0" y="-4" width="2" height="2" opacity="0"/>
</svg>
